<svg width="24" height="22" viewBox="0 0 24 22" fill="none" xmlns="http://www.w3.org/2000/svg">
<rect x="5" y="9" width="18" height="12" rx="2" stroke="#D5D5D5"/>
<path d="M7 12H10" stroke="#D5D5D5" stroke-linecap="round"/>
<path d="M18 18H21" stroke="#D5D5D5" stroke-linecap="round"/>
<g clip-path="url(#clip0_2063_844)">
<path d="M13.8253 19.1818V11H14.3931V19.1818H13.8253ZM15.7365 13.4545C15.6949 13.1307 15.5264 12.8793 15.231 12.7003C14.9355 12.5213 14.5731 12.4318 14.1438 12.4318C13.8299 12.4318 13.5552 12.4787 13.3198 12.5724C13.0866 12.6662 12.9043 12.7951 12.7727 12.9592C12.6434 13.1232 12.5788 13.3097 12.5788 13.5185C12.5788 13.6932 12.6238 13.8434 12.7138 13.9691C12.8062 14.0927 12.9239 14.196 13.067 14.2791C13.2101 14.3601 13.3602 14.4272 13.5171 14.4805C13.6741 14.5316 13.8183 14.5732 13.9499 14.6051L14.6701 14.7841C14.8547 14.8288 15.0602 14.8906 15.2864 14.9695C15.5149 15.0483 15.733 15.1559 15.9408 15.2923C16.1508 15.4265 16.3239 15.5991 16.4601 15.81C16.5963 16.021 16.6644 16.2798 16.6644 16.5866C16.6644 16.9403 16.564 17.2599 16.3632 17.5455C16.1647 17.831 15.8738 18.0579 15.4907 18.2262C15.1098 18.3945 14.647 18.4787 14.1022 18.4787C13.5944 18.4787 13.1547 18.403 12.7831 18.2518C12.4138 18.1005 12.1229 17.8895 11.9106 17.619C11.7005 17.3484 11.5817 17.0341 11.554 16.6761H12.4403C12.4634 16.9233 12.5534 17.1278 12.7104 17.2898C12.8697 17.4496 13.0705 17.5689 13.3128 17.6477C13.5575 17.7244 13.8206 17.7628 14.1022 17.7628C14.43 17.7628 14.7243 17.7138 14.9852 17.6158C15.246 17.5156 15.4526 17.3771 15.6049 17.2003C15.7573 17.0213 15.8334 16.8125 15.8334 16.5739C15.8334 16.3565 15.7676 16.1797 15.6361 16.0433C15.5045 15.907 15.3314 15.7962 15.1167 15.7109C14.9021 15.6257 14.6701 15.5511 14.4208 15.4872L13.5483 15.2571C12.9943 15.1101 12.5557 14.9002 12.2326 14.6275C11.9094 14.3548 11.7478 13.9979 11.7478 13.5568C11.7478 13.1903 11.8552 12.8707 12.0698 12.598C12.2868 12.3232 12.5777 12.1101 12.9424 11.9588C13.3094 11.8054 13.7191 11.7287 14.1715 11.7287C14.6285 11.7287 15.0348 11.8043 15.3902 11.9556C15.7457 12.1048 16.0273 12.3093 16.2351 12.5692C16.4451 12.8292 16.5559 13.1243 16.5675 13.4545H15.7365Z" fill="#D5D5D5"/>
</g>
<circle cx="7.50001" cy="7.49995" r="6.27778" fill="#0E0A01" stroke="#D5D5D5"/>
<path d="M10.75 7.49995H7.75C7.61193 7.49995 7.5 7.38802 7.5 7.24995V4.97217" stroke="#D5D5D5" stroke-linecap="round"/>
<defs>
<clipPath id="clip0_2063_844">
<rect width="6" height="9" fill="white" transform="translate(11 11)"/>
</clipPath>
</defs>
</svg>
