<svg width="25" height="25" viewBox="0 0 25 25" fill="none" xmlns="http://www.w3.org/2000/svg">
<path d="M20.1667 5.5C20.719 5.5 21.1667 5.05228 21.1667 4.5C21.1667 3.94772 20.719 3.5 20.1667 3.5V5.5ZM5.66669 4.5V5.5L20.1667 5.5V4.5V3.5L5.66669 3.5L5.66669 4.5ZM5.66669 9.5V10.5H13.6667V9.5V8.5H5.66669V9.5ZM3.16669 7H4.16669C4.16669 6.17157 4.83827 5.5 5.66669 5.5V4.5L5.66669 3.5C3.7337 3.5 2.16669 5.067 2.16669 7L3.16669 7ZM3.16669 7L2.16669 7C2.16669 8.933 3.7337 10.5 5.66669 10.5V9.5V8.5C4.83827 8.5 4.16669 7.82843 4.16669 7H3.16669Z" fill="#D5D5D5"/>
<path d="M3.16669 12.5L3.16669 7" stroke="#D5D5D5" stroke-width="2"/>
<path d="M5.16669 22C4.70942 22 4.316 22.0011 4.00262 21.959C3.67492 21.9149 3.36093 21.8153 3.10614 21.5605L3.01727 21.4629C2.82688 21.2276 2.74628 20.9509 2.7077 20.6641C2.66557 20.3507 2.66669 19.9573 2.66669 19.5L2.66669 9L19.1667 9C19.624 9 20.0174 8.99888 20.3307 9.04102C20.6585 9.08509 20.9724 9.18466 21.2272 9.43945C21.482 9.69424 21.5816 10.0082 21.6257 10.3359C21.6678 10.6493 21.6667 11.0427 21.6667 11.5V13H18.1667C16.786 13 15.6667 14.1193 15.6667 15.5C15.6667 16.8807 16.786 18 18.1667 18H21.6667V19.5C21.6667 19.9573 21.6678 20.3507 21.6257 20.6641C21.5816 20.9918 21.482 21.3058 21.2272 21.5605L21.1296 21.6494C20.8943 21.8398 20.6175 21.9204 20.3307 21.959C20.0174 22.0011 19.624 22 19.1667 22L5.16669 22Z" fill="#D5D5D5" stroke="#D5D5D5"/>
</svg>
